<svg xmlns="http://www.w3.org/2000/svg" viewBox="0 0 34 35" fill="none" id="el_kFaEkejGo"><style>@-webkit-keyframes kf_el_6wnN4MOjYc_an_uAgk2DEFy{0%{opacity: 0.3;}13.33%{opacity: 1;}26.67%{opacity: 0.3;}100%{opacity: 0.3;}}@keyframes kf_el_6wnN4MOjYc_an_uAgk2DEFy{0%{opacity: 0.3;}13.33%{opacity: 1;}26.67%{opacity: 0.3;}100%{opacity: 0.3;}}@-webkit-keyframes kf_el_pIlVUpIYqq_an_MB3UUHL2P{0%{opacity: 0.3;}30%{opacity: 0;}46.67%{opacity: 1;}66.67%{opacity: 0.3;}100%{opacity: 0.3;}}@keyframes kf_el_pIlVUpIYqq_an_MB3UUHL2P{0%{opacity: 0.3;}30%{opacity: 0;}46.67%{opacity: 1;}66.67%{opacity: 0.3;}100%{opacity: 0.3;}}@-webkit-keyframes kf_el_yAgC7hGOJK_an_0513GOx79{0%{opacity: 0.3;}13.33%{opacity: 0.3;}53.33%{opacity: 0.3;}76.67%{opacity: 1;}93.33%{opacity: 0.3;}100%{opacity: 0.3;}}@keyframes kf_el_yAgC7hGOJK_an_0513GOx79{0%{opacity: 0.3;}13.33%{opacity: 0.3;}53.33%{opacity: 0.3;}76.67%{opacity: 1;}93.33%{opacity: 0.3;}100%{opacity: 0.3;}}@-webkit-keyframes kf_el_zKlQwQqyhY_an_uDbdELHia{0%{opacity: 0.3;}36.67%{opacity: 0.3;}63.33%{opacity: 1;}86.67%{opacity: 0;}93.33%{opacity: 0.3;}100%{opacity: 0.3;}}@keyframes kf_el_zKlQwQqyhY_an_uDbdELHia{0%{opacity: 0.3;}36.67%{opacity: 0.3;}63.33%{opacity: 1;}86.67%{opacity: 0;}93.33%{opacity: 0.3;}100%{opacity: 0.3;}}@-webkit-keyframes kf_el_XqeCUop566_an_7vT1K4HQq{0%{opacity: 0.3;}23.33%{opacity: 0.3;}33.33%{opacity: 1;}56.67%{opacity: 0.3;}76.67%{opacity: 1;}96.67%{opacity: 0.3;}100%{opacity: 0.3;}}@keyframes kf_el_XqeCUop566_an_7vT1K4HQq{0%{opacity: 0.3;}23.33%{opacity: 0.3;}33.33%{opacity: 1;}56.67%{opacity: 0.3;}76.67%{opacity: 1;}96.67%{opacity: 0.3;}100%{opacity: 0.3;}}@-webkit-keyframes kf_el_1CxkMJWtMV_an_cqbAq173x{0%{opacity: 0.3;}3.33%{opacity: 0;}26.67%{opacity: 1;}53.33%{opacity: 0.3;}100%{opacity: 0.3;}}@keyframes kf_el_1CxkMJWtMV_an_cqbAq173x{0%{opacity: 0.3;}3.33%{opacity: 0;}26.67%{opacity: 1;}53.33%{opacity: 0.3;}100%{opacity: 0.3;}}@-webkit-keyframes kf_el_Jzl3g1hIYT_an_qnT_dKHAn{0%{opacity: 0.3;}13.33%{opacity: 1;}40%{opacity: 0;}60%{opacity: 1;}80%{opacity: 0.3;}100%{opacity: 0.3;}}@keyframes kf_el_Jzl3g1hIYT_an_qnT_dKHAn{0%{opacity: 0.3;}13.33%{opacity: 1;}40%{opacity: 0;}60%{opacity: 1;}80%{opacity: 0.3;}100%{opacity: 0.3;}}@-webkit-keyframes kf_el_4jokLIu7Zc_an_HRZ8m5L60{0%{opacity: 0.3;}40%{opacity: 0;}73.33%{opacity: 1;}93.33%{opacity: 0;}96.67%{opacity: 0.3;}100%{opacity: 0.3;}}@keyframes kf_el_4jokLIu7Zc_an_HRZ8m5L60{0%{opacity: 0.3;}40%{opacity: 0;}73.33%{opacity: 1;}93.33%{opacity: 0;}96.67%{opacity: 0.3;}100%{opacity: 0.3;}}@-webkit-keyframes kf_el_OvapKxyxEq_an_c8D3phMWu{0%{opacity: 0.3;}23.33%{opacity: 0.3;}50%{opacity: 1;}100%{opacity: 1;}}@keyframes kf_el_OvapKxyxEq_an_c8D3phMWu{0%{opacity: 0.3;}23.33%{opacity: 0.3;}50%{opacity: 1;}100%{opacity: 1;}}@-webkit-keyframes kf_el_6S_rm9DXrI_an_i9Yd1yTwD{0%{opacity: 0.3;}10%{opacity: 0.3;}33.33%{opacity: 1;}66.67%{opacity: 1;}100%{opacity: 1;}}@keyframes kf_el_6S_rm9DXrI_an_i9Yd1yTwD{0%{opacity: 0.3;}10%{opacity: 0.3;}33.33%{opacity: 1;}66.67%{opacity: 1;}100%{opacity: 1;}}@-webkit-keyframes kf_el_z8vbl6luZi_an_om0zysnEE{0%{opacity: 0.3;}23.33%{opacity: 1;}36.67%{opacity: 0.3;}100%{opacity: 0.3;}}@keyframes kf_el_z8vbl6luZi_an_om0zysnEE{0%{opacity: 0.3;}23.33%{opacity: 1;}36.67%{opacity: 0.3;}100%{opacity: 0.3;}}@-webkit-keyframes kf_el_y-zuVmtwAW_an_ieFhQQ65C{0%{opacity: 0.3;}20%{opacity: 0;}46.67%{opacity: 1;}70%{opacity: 0.3;}100%{opacity: 0.3;}}@keyframes kf_el_y-zuVmtwAW_an_ieFhQQ65C{0%{opacity: 0.3;}20%{opacity: 0;}46.67%{opacity: 1;}70%{opacity: 0.3;}100%{opacity: 0.3;}}@-webkit-keyframes kf_el_USkEXfEEVl_an_ju8IEOp4J{0%{opacity: 0.3;}20%{opacity: 0;}60%{opacity: 1;}96.67%{opacity: 0.3;}100%{opacity: 0.3;}}@keyframes kf_el_USkEXfEEVl_an_ju8IEOp4J{0%{opacity: 0.3;}20%{opacity: 0;}60%{opacity: 1;}96.67%{opacity: 0.3;}100%{opacity: 0.3;}}@-webkit-keyframes kf_el_KXRwTji-Hb_an_gYRf8gE8N{0%{opacity: 0.3;}33.33%{opacity: 0.3;}83.33%{opacity: 1;}100%{opacity: 1;}}@keyframes kf_el_KXRwTji-Hb_an_gYRf8gE8N{0%{opacity: 0.3;}33.33%{opacity: 0.3;}83.33%{opacity: 1;}100%{opacity: 1;}}#el_kFaEkejGo *{-webkit-animation-duration: 1s;animation-duration: 1s;-webkit-animation-iteration-count: infinite;animation-iteration-count: infinite;-webkit-animation-timing-function: cubic-bezier(0, 0, 1, 1);animation-timing-function: cubic-bezier(0, 0, 1, 1);}#el_KXRwTji-Hb{fill: #FFF;-webkit-animation-fill-mode: backwards;animation-fill-mode: backwards;opacity: 0.3;-webkit-animation-name: kf_el_KXRwTji-Hb_an_gYRf8gE8N;animation-name: kf_el_KXRwTji-Hb_an_gYRf8gE8N;-webkit-animation-timing-function: cubic-bezier(0, 0, 1, 1);animation-timing-function: cubic-bezier(0, 0, 1, 1);}#el_USkEXfEEVl{fill: #FFF;-webkit-animation-fill-mode: backwards;animation-fill-mode: backwards;opacity: 0.3;-webkit-animation-name: kf_el_USkEXfEEVl_an_ju8IEOp4J;animation-name: kf_el_USkEXfEEVl_an_ju8IEOp4J;-webkit-animation-timing-function: cubic-bezier(0, 0, 1, 1);animation-timing-function: cubic-bezier(0, 0, 1, 1);}#el_y-zuVmtwAW{fill: #FFF;-webkit-animation-fill-mode: backwards;animation-fill-mode: backwards;opacity: 0.3;-webkit-animation-name: kf_el_y-zuVmtwAW_an_ieFhQQ65C;animation-name: kf_el_y-zuVmtwAW_an_ieFhQQ65C;-webkit-animation-timing-function: cubic-bezier(0, 0, 1, 1);animation-timing-function: cubic-bezier(0, 0, 1, 1);}#el_z8vbl6luZi{fill: #FFF;-webkit-animation-fill-mode: backwards;animation-fill-mode: backwards;opacity: 0.3;-webkit-animation-name: kf_el_z8vbl6luZi_an_om0zysnEE;animation-name: kf_el_z8vbl6luZi_an_om0zysnEE;-webkit-animation-timing-function: cubic-bezier(0, 0, 1, 1);animation-timing-function: cubic-bezier(0, 0, 1, 1);}#el_6S_rm9DXrI{fill: #FFF;-webkit-animation-fill-mode: backwards;animation-fill-mode: backwards;opacity: 0.3;-webkit-animation-name: kf_el_6S_rm9DXrI_an_i9Yd1yTwD;animation-name: kf_el_6S_rm9DXrI_an_i9Yd1yTwD;-webkit-animation-timing-function: cubic-bezier(0, 0, 1, 1);animation-timing-function: cubic-bezier(0, 0, 1, 1);}#el_OvapKxyxEq{fill: #FFF;-webkit-animation-fill-mode: backwards;animation-fill-mode: backwards;opacity: 0.3;-webkit-animation-name: kf_el_OvapKxyxEq_an_c8D3phMWu;animation-name: kf_el_OvapKxyxEq_an_c8D3phMWu;-webkit-animation-timing-function: cubic-bezier(0, 0, 1, 1);animation-timing-function: cubic-bezier(0, 0, 1, 1);}#el_4jokLIu7Zc{fill: #FFF;-webkit-animation-fill-mode: backwards;animation-fill-mode: backwards;opacity: 0.3;-webkit-animation-name: kf_el_4jokLIu7Zc_an_HRZ8m5L60;animation-name: kf_el_4jokLIu7Zc_an_HRZ8m5L60;-webkit-animation-timing-function: cubic-bezier(0, 0, 1, 1);animation-timing-function: cubic-bezier(0, 0, 1, 1);}#el_ypGFh7LQxh{fill: #FFF;}#el_Jzl3g1hIYT{fill: #FFF;-webkit-animation-fill-mode: backwards;animation-fill-mode: backwards;opacity: 0.3;-webkit-animation-name: kf_el_Jzl3g1hIYT_an_qnT_dKHAn;animation-name: kf_el_Jzl3g1hIYT_an_qnT_dKHAn;-webkit-animation-timing-function: cubic-bezier(0, 0, 1, 1);animation-timing-function: cubic-bezier(0, 0, 1, 1);}#el_1CxkMJWtMV{fill: #FFF;-webkit-animation-fill-mode: backwards;animation-fill-mode: backwards;opacity: 0.3;-webkit-animation-name: kf_el_1CxkMJWtMV_an_cqbAq173x;animation-name: kf_el_1CxkMJWtMV_an_cqbAq173x;-webkit-animation-timing-function: cubic-bezier(0, 0, 1, 1);animation-timing-function: cubic-bezier(0, 0, 1, 1);}#el_XqeCUop566{fill: #FFF;-webkit-animation-fill-mode: backwards;animation-fill-mode: backwards;opacity: 0.3;-webkit-animation-name: kf_el_XqeCUop566_an_7vT1K4HQq;animation-name: kf_el_XqeCUop566_an_7vT1K4HQq;-webkit-animation-timing-function: cubic-bezier(0, 0, 1, 1);animation-timing-function: cubic-bezier(0, 0, 1, 1);}#el_zKlQwQqyhY{fill: #FFF;-webkit-animation-fill-mode: backwards;animation-fill-mode: backwards;opacity: 0.3;-webkit-animation-name: kf_el_zKlQwQqyhY_an_uDbdELHia;animation-name: kf_el_zKlQwQqyhY_an_uDbdELHia;-webkit-animation-timing-function: cubic-bezier(0, 0, 1, 1);animation-timing-function: cubic-bezier(0, 0, 1, 1);}#el_yAgC7hGOJK{fill: #FFF;-webkit-animation-fill-mode: backwards;animation-fill-mode: backwards;opacity: 0.3;-webkit-animation-name: kf_el_yAgC7hGOJK_an_0513GOx79;animation-name: kf_el_yAgC7hGOJK_an_0513GOx79;-webkit-animation-timing-function: cubic-bezier(0, 0, 1, 1);animation-timing-function: cubic-bezier(0, 0, 1, 1);}#el_pIlVUpIYqq{fill: #FFF;-webkit-animation-fill-mode: backwards;animation-fill-mode: backwards;opacity: 0.3;-webkit-animation-name: kf_el_pIlVUpIYqq_an_MB3UUHL2P;animation-name: kf_el_pIlVUpIYqq_an_MB3UUHL2P;-webkit-animation-timing-function: cubic-bezier(0, 0, 1, 1);animation-timing-function: cubic-bezier(0, 0, 1, 1);}#el_6wnN4MOjYc{fill: #FFF;-webkit-animation-fill-mode: backwards;animation-fill-mode: backwards;opacity: 0.3;-webkit-animation-name: kf_el_6wnN4MOjYc_an_uAgk2DEFy;animation-name: kf_el_6wnN4MOjYc_an_uAgk2DEFy;-webkit-animation-timing-function: cubic-bezier(0, 0, 1, 1);animation-timing-function: cubic-bezier(0, 0, 1, 1);}#el_EpVwfSIiQ5A{fill: #FFF;}</style><path d="M17.0169 8.47167L19.4783 9.19859C19.5331 9.21461 19.5881 9.22239 19.6423 9.22239C19.8938 9.22239 20.1257 9.05646 20.2 8.80103C20.2904 8.49043 20.1137 8.16497 19.8054 8.07387L17.344 7.34695C17.0357 7.25654 16.7127 7.43392 16.6223 7.74451C16.5319 8.0551 16.7086 8.38057 17.0169 8.47167Z" id="el_KXRwTji-Hb"></path><path d="M30.5818 11.2564L28.1201 10.5295C27.8123 10.4386 27.4888 10.6163 27.3987 10.9268C27.3082 11.2374 27.485 11.5629 27.793 11.654L30.2547 12.3809C30.3092 12.3969 30.3644 12.4047 30.4185 12.4047C30.67 12.4047 30.9019 12.239 30.9764 11.9834C31.0666 11.673 30.8901 11.3475 30.5818 11.2564Z" id="el_USkEXfEEVl"></path><path d="M27.6015 8.35605C27.6958 8.35605 27.7914 8.3327 27.88 8.28395L30.1307 7.04433C30.4126 6.88915 30.5162 6.53301 30.3622 6.2492C30.2082 5.96516 29.8547 5.86079 29.573 6.01597L27.3221 7.25582C27.0404 7.411 26.9369 7.76714 27.0909 8.05095C27.1965 8.24573 27.3957 8.35605 27.6015 8.35605Z" id="el_y-zuVmtwAW"></path><path d="M19.7185 11.4439L17.4679 12.6837C17.186 12.8389 17.0824 13.1948 17.2364 13.4789C17.342 13.6734 17.5415 13.7837 17.7473 13.7837C17.8415 13.7837 17.9372 13.7606 18.0255 13.7119L20.2764 12.472C20.5581 12.3168 20.6617 11.9607 20.5077 11.6769C20.3537 11.3928 20.0002 11.2887 19.7185 11.4439Z" id="el_z8vbl6luZi"></path><path d="M27.6184 15.6808L26.3879 13.4131C26.2338 13.129 25.8804 13.0249 25.5987 13.1801C25.3168 13.3353 25.2132 13.6914 25.3672 13.9752L26.5978 16.243C26.7034 16.4377 26.9028 16.5481 27.1084 16.5481C27.2027 16.5481 27.2983 16.5247 27.3869 16.476C27.6688 16.3208 27.7724 15.9649 27.6184 15.6808Z" id="el_6S_rm9DXrI"></path><path d="M21.211 6.31462C21.3167 6.5094 21.5161 6.61972 21.7217 6.61972C21.816 6.61972 21.9116 6.59638 22.0002 6.54762C22.2821 6.39244 22.3857 6.03653 22.2314 5.75249L21.0011 3.48475C20.8471 3.2007 20.4937 3.09656 20.212 3.25174C19.9301 3.40693 19.8265 3.76283 19.9805 4.04688L21.211 6.31462Z" id="el_OvapKxyxEq"></path><path d="M24.8547 6.23705C24.9094 6.2533 24.9644 6.26086 25.0184 6.26086C25.2699 6.26086 25.5018 6.09515 25.5763 5.83972L26.2978 3.35934C26.388 3.04875 26.2115 2.72328 25.9032 2.63219C25.595 2.54155 25.272 2.71916 25.1815 3.02975L24.4601 5.51013C24.3699 5.82072 24.5464 6.14619 24.8547 6.23705Z" id="el_4jokLIu7Zc"></path><path d="M25.3618 11.1552L25.7682 9.75835C25.7682 9.75789 25.7682 9.75744 25.7684 9.75698L25.772 9.74485C26.0582 8.76089 25.4965 7.72567 24.5199 7.43728L24.4934 7.42927C24.0202 7.28966 23.5214 7.3439 23.0888 7.58216C22.6563 7.82043 22.3417 8.21433 22.2032 8.69086L22.1998 8.70276C22.1995 8.70322 22.1993 8.7039 22.1993 8.70436L21.7929 10.1014C21.7927 10.1017 21.7927 10.1019 21.7927 10.1024L19.443 18.1795C19.2124 18.9719 19.532 19.7972 20.1756 20.2394L17.2189 30.4037C17.1287 30.7143 17.3052 31.0398 17.6135 31.1309C17.668 31.1469 17.7232 31.1547 17.7772 31.1547C18.0287 31.1547 18.2606 30.989 18.3349 30.7333L21.2918 20.5681C22.07 20.5457 22.7815 20.0259 23.0118 19.2335L25.3616 11.1554C25.3616 11.1554 25.3616 11.1554 25.3618 11.1552ZM23.3153 9.03349C23.3678 8.85382 23.4864 8.7055 23.6495 8.61556C23.8128 8.52561 24.0009 8.50524 24.1794 8.55788C24.358 8.61052 24.5054 8.73022 24.5947 8.89479C24.6837 9.05889 24.7042 9.24841 24.6521 9.42808L24.4091 10.2635L23.0725 9.86867L23.3153 9.03349ZM21.8958 18.9039C21.79 19.2678 21.4097 19.4773 21.0476 19.3701L21.0356 19.3667C21.0353 19.3667 21.0353 19.3667 21.0353 19.3665L21.0222 19.3628C20.661 19.2562 20.4531 18.8733 20.559 18.5091L22.7454 10.9932L24.082 11.388L21.8958 18.9039Z" id="el_ypGFh7LQxh"></path><path d="M13.8 11.3404C13.8743 11.596 14.1062 11.7617 14.3577 11.7617C14.412 11.7617 14.467 11.754 14.5215 11.7379L16.9832 11.011C17.2914 10.9199 17.4679 10.5944 17.3778 10.2839C17.2874 9.97327 16.9641 9.79543 16.6561 9.88652L14.1944 10.6134C13.8863 10.7043 13.7096 11.03 13.8 11.3404Z" id="el_Jzl3g1hIYT"></path><path d="M6.6013 13.4664C6.5109 13.1556 6.18765 12.9779 5.87985 13.0688L3.41814 13.7957C3.10989 13.8868 2.93339 14.2123 3.02357 14.5229C3.09785 14.7783 3.33001 14.9443 3.58147 14.9443C3.63553 14.9443 3.69073 14.9365 3.74525 14.9205L6.20696 14.1933C6.51498 14.1024 6.69171 13.777 6.6013 13.4664Z" id="el_1CxkMJWtMV"></path><path d="M3.8702 9.58366L6.12088 10.8235C6.20947 10.8723 6.3051 10.8956 6.39937 10.8956C6.60518 10.8956 6.8044 10.7853 6.91002 10.5905C7.06404 10.3067 6.96068 9.95056 6.67878 9.79538L4.4281 8.55553C4.14619 8.40035 3.79296 8.50472 3.63872 8.78853C3.48471 9.07257 3.58829 9.42848 3.8702 9.58366Z" id="el_XqeCUop566"></path><path d="M14.2814 13.9832C13.9997 13.8278 13.6463 13.9324 13.4922 14.2162C13.3382 14.5003 13.4418 14.8562 13.7235 15.0114L15.9744 16.2512C16.0628 16.3002 16.1584 16.3233 16.2527 16.3233C16.4585 16.3233 16.6579 16.213 16.7635 16.0182C16.9176 15.7344 16.814 15.3783 16.5323 15.2231L14.2814 13.9832Z" id="el_zKlQwQqyhY"></path><path d="M8.40155 15.7196C8.11965 15.5644 7.76641 15.6688 7.6124 15.9526L6.38189 18.2206C6.22787 18.5044 6.33146 18.8605 6.61336 19.0157C6.70195 19.0645 6.79736 19.0876 6.89163 19.0876C7.09743 19.0876 7.29688 18.9775 7.40251 18.7827L8.63302 16.515C8.78704 16.2309 8.68345 15.875 8.40155 15.7196Z" id="el_yAgC7hGOJK"></path><path d="M12 9.08723C12.0886 9.13598 12.1842 9.1591 12.2785 9.1591C12.484 9.1591 12.6835 9.049 12.7891 8.85423L14.0196 6.58625C14.1736 6.30244 14.07 5.9463 13.7881 5.79112C13.5062 5.63594 13.153 5.74031 12.999 6.02435L11.7687 8.2921C11.6145 8.57591 11.7183 8.93205 12 9.08723Z" id="el_pIlVUpIYqq"></path><path d="M8.42471 8.37912C8.49899 8.63455 8.73092 8.80049 8.98261 8.80049C9.03667 8.80049 9.09187 8.79271 9.14639 8.77669C9.45442 8.68559 9.63114 8.36012 9.54074 8.04953L8.81928 5.56939C8.7291 5.25879 8.40563 5.08095 8.09783 5.17182C7.78958 5.26291 7.61308 5.58838 7.70326 5.89897L8.42471 8.37912Z" id="el_6wnN4MOjYc"></path><path d="M13.8245 22.7791C14.4678 22.3371 14.7876 21.5118 14.5571 20.7192L11.7971 11.2305C11.6583 10.7538 11.3437 10.3601 10.9112 10.1218C10.4787 9.88357 9.97984 9.82933 9.50644 9.96895L9.49441 9.97261C9.49395 9.97284 9.49372 9.97284 9.4935 9.97284C9.49327 9.97306 9.49282 9.97306 9.49259 9.97329L9.48009 9.97696C8.50355 10.2653 7.94179 11.3006 8.22801 12.2845L8.23164 12.2967C8.23164 12.2971 8.23187 12.2976 8.23187 12.298L8.63825 13.6951C8.63825 13.6951 8.63825 13.6953 8.63848 13.6953L10.9882 21.7732C11.1268 22.2499 11.4414 22.6436 11.8739 22.8821C12.1349 23.0256 12.4195 23.1016 12.7084 23.1092L15.3491 32.1872C15.4234 32.4426 15.6554 32.6086 15.9068 32.6086C15.9611 32.6086 16.0161 32.6008 16.0706 32.5848C16.3788 32.4937 16.5554 32.1682 16.4652 31.8576L13.8245 22.7791ZM9.34789 11.9675C9.24022 11.5965 9.45215 11.2065 9.82015 11.0976L9.82083 11.0973C10.1891 10.9888 10.5768 11.2021 10.6847 11.5734L10.9275 12.4081L9.59095 12.8029L9.34789 11.9675ZM12.1042 21.4436L9.91805 13.9274L11.2549 13.5328L13.441 21.0488C13.5469 21.4127 13.3393 21.7956 12.9776 21.9023L12.9515 21.9101C12.7766 21.9618 12.5919 21.9416 12.4318 21.8535C12.2719 21.7654 12.1555 21.6198 12.1042 21.4436Z" id="el_EpVwfSIiQ5A"></path></svg>